<?xml version="1.0" standalone="no"?>
<!DOCTYPE svg PUBLIC "-//W3C//DTD SVG 20010904//EN"
 "http://www.w3.org/TR/2001/REC-SVG-20010904/DTD/svg10.dtd">
<svg version="1.0" xmlns="http://www.w3.org/2000/svg"
 width="430.000000pt" height="206.000000pt" viewBox="0 0 430.000000 206.000000"
 preserveAspectRatio="xMidYMid meet">

<g transform="translate(0.000000,206.000000) scale(0.100000,-0.100000)"
fill="#fff" stroke="none">
<path d="M2944 1668 c-12 -6 -47 -57 -79 -117 -31 -58 -66 -114 -77 -123 -12
-11 -38 -18 -62 -19 -22 -1 -52 -4 -66 -8 -21 -6 -17 -8 23 -13 26 -3 51 -9
55 -12 3 -4 -1 -21 -9 -39 -25 -52 -178 -367 -207 -427 -51 -103 -77 -75 -91
97 -6 78 -12 108 -26 123 -17 19 -18 26 -6 85 8 40 10 80 5 103 -4 20 -8 41
-8 46 -1 10 -67 31 -130 40 l-46 7 6 57 c4 46 1 63 -15 89 -30 47 -92 75 -180
81 -110 7 -328 -34 -466 -89 -38 -15 -88 -30 -110 -34 l-40 -6 28 16 c44 26
26 28 -29 4 -59 -26 -61 -30 -69 -94 -9 -67 7 -110 38 -101 12 4 39 10 60 13
32 5 37 3 37 -14 0 -51 2 -50 -470 -97 -245 -25 -481 -50 -525 -55 -44 -6
-111 -13 -149 -17 l-69 -6 7 -81 c4 -45 17 -176 29 -292 l22 -210 50 3 c28 2
239 23 470 46 231 24 423 40 428 37 4 -4 1 -43 -6 -87 -21 -125 -12 -136 85
-98 92 36 95 39 107 129 6 43 16 82 22 86 7 4 9 11 6 16 -6 9 25 172 44 231
16 52 23 58 77 71 80 20 146 43 162 56 8 7 42 24 75 37 68 28 218 123 276 175
31 28 42 33 53 24 15 -12 16 -26 35 -331 7 -102 16 -193 21 -202 6 -10 10 -25
10 -33 0 -8 7 -15 15 -15 8 0 15 -9 15 -21 0 -11 -4 -17 -10 -14 -12 7 -13
-15 -2 -31 16 -22 58 -44 87 -44 17 0 47 11 67 25 20 14 41 25 46 25 5 0 16
14 23 32 7 17 28 51 46 75 18 24 33 46 33 50 0 4 18 34 40 67 21 34 52 93 68
131 32 77 116 215 131 215 6 0 14 -6 18 -14 6 -10 35 -15 106 -18 84 -2 101
-6 113 -22 50 -69 -43 -236 -131 -236 -19 0 -35 -4 -35 -10 0 -5 13 -10 29
-10 34 0 48 -15 32 -34 -6 -7 -8 -15 -6 -18 3 -3 -17 -8 -45 -12 -65 -9 -68
-30 -2 -24 26 3 241 25 477 48 237 24 434 47 439 51 4 4 -1 94 -13 201 -11
106 -24 230 -27 275 -4 45 -10 87 -15 94 -7 11 -85 6 -426 -28 -230 -23 -419
-40 -422 -38 -2 3 17 46 42 97 42 84 60 149 40 147 -5 0 -18 -5 -29 -11z
m-878 -174 c56 -27 65 -48 43 -94 -20 -41 -44 -60 -78 -60 -11 0 -25 -9 -30
-19 -6 -10 -32 -29 -58 -42 -27 -12 -65 -40 -85 -61 -21 -20 -52 -44 -70 -52
-18 -9 -58 -29 -88 -46 -110 -60 -136 -27 -77 99 19 42 43 97 52 123 27 79 45
93 153 127 148 45 186 49 238 25z"/>
</g>
</svg>
